<?xml version="1.0" encoding="UTF-8" standalone="no"?>
<!DOCTYPE svg PUBLIC "-//W3C//DTD SVG 1.1//EN"
 "http://www.w3.org/Graphics/SVG/1.1/DTD/svg11.dtd">
<!-- Generated by graphviz version 2.40.1 (20161225.0304)
 -->
<!-- Title: UmlClassDiagram Pages: 1 -->
<svg width="777pt" height="1453pt"
 viewBox="0.00 0.00 777.07 1453.00" xmlns="http://www.w3.org/2000/svg" xmlns:xlink="http://www.w3.org/1999/xlink">
<g id="graph0" class="graph" transform="scale(1 1) rotate(0) translate(4 1449)">
<title>UmlClassDiagram</title>
<polygon fill="#ffffff" stroke="transparent" points="-4,4 -4,-1449 773.0698,-1449 773.0698,4 -4,4"/>
<!-- 0 -->
<g id="node1" class="node">
<title>0</title>
<polygon fill="#f2f2f2" stroke="#000000" points="292.9283,-.5 292.9283,-192.5 459.8035,-192.5 459.8035,-.5 292.9283,-.5"/>
<text text-anchor="middle" x="376.3659" y="-175.9" font-family="Times,serif" font-size="14.00" fill="#000000">Bank</text>
<polyline fill="none" stroke="#000000" points="292.9283,-167.7 459.8035,-167.7 "/>
<text text-anchor="start" x="300.9283" y="-151.1" font-family="Times,serif" font-size="14.00" fill="#000000">Internal:</text>
<text text-anchor="start" x="300.9283" y="-134.3" font-family="Times,serif" font-size="14.00" fill="#000000"> &#160;&#160;customer: Customer</text>
<text text-anchor="start" x="300.9283" y="-117.5" font-family="Times,serif" font-size="14.00" fill="#000000"> &#160;&#160;myTeam: MyTeam</text>
<polyline fill="none" stroke="#000000" points="292.9283,-109.3 459.8035,-109.3 "/>
<text text-anchor="start" x="300.9283" y="-92.7" font-family="Times,serif" font-size="14.00" fill="#000000">External:</text>
<text text-anchor="start" x="300.9283" y="-75.9" font-family="Times,serif" font-size="14.00" fill="#000000"> &#160;&#160;&#160;getBalance(): uint</text>
<text text-anchor="start" x="300.9283" y="-59.1" font-family="Times,serif" font-size="14.00" fill="#000000"> &#160;&#160;&#160;investMonthlyAmount()</text>
<text text-anchor="start" x="300.9283" y="-42.3" font-family="Times,serif" font-size="14.00" fill="#000000"> &#160;&#160;&#160;withdrawInvestment()</text>
<text text-anchor="start" x="300.9283" y="-25.5" font-family="Times,serif" font-size="14.00" fill="#000000">Public:</text>
<text text-anchor="start" x="300.9283" y="-8.7" font-family="Times,serif" font-size="14.00" fill="#000000"> &#160;&#160;&#160;constructor()</text>
</g>
<!-- 2 -->
<g id="node3" class="node">
<title>2</title>
<polygon fill="#f2f2f2" stroke="#000000" points="0,-391.3 0,-734.5 262.7318,-734.5 262.7318,-391.3 0,-391.3"/>
<text text-anchor="middle" x="131.3659" y="-717.9" font-family="Times,serif" font-size="14.00" fill="#000000">CustomerCore</text>
<polyline fill="none" stroke="#000000" points="0,-709.7 262.7318,-709.7 "/>
<text text-anchor="start" x="8" y="-693.1" font-family="Times,serif" font-size="14.00" fill="#000000">Internal:</text>
<text text-anchor="start" x="8" y="-676.3" font-family="Times,serif" font-size="14.00" fill="#000000"> &#160;&#160;name: string</text>
<text text-anchor="start" x="8" y="-659.5" font-family="Times,serif" font-size="14.00" fill="#000000"> &#160;&#160;balance: uint</text>
<text text-anchor="start" x="8" y="-642.7" font-family="Times,serif" font-size="14.00" fill="#000000"> &#160;&#160;playedRoles: mapping(bytes32=&gt;address)</text>
<text text-anchor="start" x="8" y="-625.9" font-family="Times,serif" font-size="14.00" fill="#000000"> &#160;&#160;activeTeam: address</text>
<polyline fill="none" stroke="#000000" points="0,-617.7 262.7318,-617.7 "/>
<text text-anchor="start" x="8" y="-601.1" font-family="Times,serif" font-size="14.00" fill="#000000">External:</text>
<text text-anchor="start" x="8" y="-584.3" font-family="Times,serif" font-size="14.00" fill="#000000"> &#160;&#160;&#160;deposit(amount: uint)</text>
<text text-anchor="start" x="8" y="-567.5" font-family="Times,serif" font-size="14.00" fill="#000000"> &#160;&#160;&#160;withdraw(amount: uint)</text>
<text text-anchor="start" x="8" y="-550.7" font-family="Times,serif" font-size="14.00" fill="#000000"> &#160;&#160;&#160;currentBalance(): uint</text>
<text text-anchor="start" x="8" y="-533.9" font-family="Times,serif" font-size="14.00" fill="#000000"> &#160;&#160;&#160;isPlayingRole(roleType: bytes32): bool</text>
<text text-anchor="start" x="8" y="-517.1" font-family="Times,serif" font-size="14.00" fill="#000000"> &#160;&#160;&#160;addRole(role: address)</text>
<text text-anchor="start" x="8" y="-500.3" font-family="Times,serif" font-size="14.00" fill="#000000"> &#160;&#160;&#160;removeRole(roleType: bytes32)</text>
<text text-anchor="start" x="8" y="-483.5" font-family="Times,serif" font-size="14.00" fill="#000000"> &#160;&#160;&#160;getRole(roleType: bytes32): address</text>
<text text-anchor="start" x="8" y="-466.7" font-family="Times,serif" font-size="14.00" fill="#000000"> &#160;&#160;&#160;getActiveTeam(): address</text>
<text text-anchor="start" x="8" y="-449.9" font-family="Times,serif" font-size="14.00" fill="#000000"> &#160;&#160;&#160;activateTeam(team: address)</text>
<text text-anchor="start" x="8" y="-433.1" font-family="Times,serif" font-size="14.00" fill="#000000"> &#160;&#160;&#160;deactivateTeam()</text>
<text text-anchor="start" x="8" y="-416.3" font-family="Times,serif" font-size="14.00" fill="#000000">Public:</text>
<text text-anchor="start" x="8" y="-399.5" font-family="Times,serif" font-size="14.00" fill="#000000"> &#160;&#160;&#160;constructor(_name: string)</text>
</g>
<!-- 0&#45;&gt;2 -->
<g id="edge2" class="edge">
<title>0&#45;&gt;2</title>
<path fill="none" stroke="#000000" stroke-dasharray="5,2" d="M325.8988,-192.5729C297.2016,-247.203 260.3246,-317.4048 226.408,-381.9708"/>
<polygon fill="#000000" stroke="#000000" points="223.195,-380.5612 221.6431,-391.0417 229.3921,-383.8165 223.195,-380.5612"/>
</g>
<!-- 5 -->
<g id="node6" class="node">
<title>5</title>
<polygon fill="#f2f2f2" stroke="#000000" points="299.1674,-492.1 299.1674,-633.7 453.5644,-633.7 453.5644,-492.1 299.1674,-492.1"/>
<text text-anchor="middle" x="376.3659" y="-617.1" font-family="Times,serif" font-size="14.00" fill="#000000">Investor</text>
<polyline fill="none" stroke="#000000" points="299.1674,-608.9 453.5644,-608.9 "/>
<text text-anchor="start" x="307.1674" y="-592.3" font-family="Times,serif" font-size="14.00" fill="#000000">Public:</text>
<text text-anchor="start" x="307.1674" y="-575.5" font-family="Times,serif" font-size="14.00" fill="#000000"> &#160;&#160;investAmount: uint</text>
<polyline fill="none" stroke="#000000" points="299.1674,-567.3 453.5644,-567.3 "/>
<text text-anchor="start" x="307.1674" y="-550.7" font-family="Times,serif" font-size="14.00" fill="#000000">Public:</text>
<text text-anchor="start" x="307.1674" y="-533.9" font-family="Times,serif" font-size="14.00" fill="#000000"> &#160;&#160;&#160;roleType(): bytes32</text>
<text text-anchor="start" x="307.1674" y="-517.1" font-family="Times,serif" font-size="14.00" fill="#000000"> &#160;&#160;&#160;invest(amount: uint)</text>
<text text-anchor="start" x="307.1674" y="-500.3" font-family="Times,serif" font-size="14.00" fill="#000000"> &#160;&#160;&#160;withdrawInvestment()</text>
</g>
<!-- 0&#45;&gt;5 -->
<g id="edge3" class="edge">
<title>0&#45;&gt;5</title>
<path fill="none" stroke="#000000" stroke-dasharray="5,2" d="M376.3659,-192.5729C376.3659,-277.9859 376.3659,-401.4634 376.3659,-481.9528"/>
<polygon fill="#000000" stroke="#000000" points="372.866,-482.0381 376.3659,-492.0381 379.866,-482.0382 372.866,-482.0381"/>
</g>
<!-- 7 -->
<g id="node8" class="node">
<title>7</title>
<polygon fill="#f2f2f2" stroke="#000000" points="532.5864,-229.5 532.5864,-354.3 688.1454,-354.3 688.1454,-229.5 532.5864,-229.5"/>
<text text-anchor="middle" x="610.3659" y="-337.7" font-family="Times,serif" font-size="14.00" fill="#000000">MyTeam</text>
<polyline fill="none" stroke="#000000" points="532.5864,-329.5 688.1454,-329.5 "/>
<text text-anchor="middle" x="610.3659" y="-312.9" font-family="Times,serif" font-size="14.00" fill="#000000"> </text>
<polyline fill="none" stroke="#000000" points="532.5864,-304.7 688.1454,-304.7 "/>
<text text-anchor="start" x="540.5864" y="-288.1" font-family="Times,serif" font-size="14.00" fill="#000000">External:</text>
<text text-anchor="start" x="540.5864" y="-271.3" font-family="Times,serif" font-size="14.00" fill="#000000"> &#160;&#160;&#160;getInvestor(): Investor</text>
<text text-anchor="start" x="540.5864" y="-254.5" font-family="Times,serif" font-size="14.00" fill="#000000">Public:</text>
<text text-anchor="start" x="540.5864" y="-237.7" font-family="Times,serif" font-size="14.00" fill="#000000"> &#160;&#160;&#160;constructor()</text>
</g>
<!-- 0&#45;&gt;7 -->
<g id="edge1" class="edge">
<title>0&#45;&gt;7</title>
<path fill="none" stroke="#000000" d="M459.9196,-185.5598C462.735,-188.1029 465.5544,-190.5892 468.3659,-193 485.6499,-207.8205 505.145,-222.5335 524.0274,-235.9038"/>
<polygon fill="#000000" stroke="#000000" points="522.1636,-238.8716 532.3608,-241.7473 526.1826,-233.1403 522.1636,-238.8716"/>
</g>
<!-- 1 -->
<g id="node2" class="node">
<title>1</title>
<polygon fill="#f2f2f2" stroke="#000000" points="82.8003,-1185.3 82.8003,-1444.5 337.9315,-1444.5 337.9315,-1185.3 82.8003,-1185.3"/>
<text text-anchor="middle" x="210.3659" y="-1427.9" font-family="Times,serif" font-size="14.00" fill="#000000">&lt;&lt;Interface&gt;&gt;</text>
<text text-anchor="middle" x="210.3659" y="-1411.1" font-family="Times,serif" font-size="14.00" fill="#000000">Customer</text>
<polyline fill="none" stroke="#000000" points="82.8003,-1402.9 337.9315,-1402.9 "/>
<text text-anchor="middle" x="210.3659" y="-1386.3" font-family="Times,serif" font-size="14.00" fill="#000000"> </text>
<polyline fill="none" stroke="#000000" points="82.8003,-1378.1 337.9315,-1378.1 "/>
<text text-anchor="start" x="90.8003" y="-1361.5" font-family="Times,serif" font-size="14.00" fill="#000000">External:</text>
<text text-anchor="start" x="90.8003" y="-1344.7" font-family="Times,serif" font-size="14.00" fill="#000000"> &#160;&#160;&#160;&#160;deposit(amount: uint)</text>
<text text-anchor="start" x="90.8003" y="-1327.9" font-family="Times,serif" font-size="14.00" fill="#000000"> &#160;&#160;&#160;&#160;withdraw(amount: uint)</text>
<text text-anchor="start" x="90.8003" y="-1311.1" font-family="Times,serif" font-size="14.00" fill="#000000"> &#160;&#160;&#160;&#160;currentBalance(): uint256</text>
<text text-anchor="start" x="90.8003" y="-1294.3" font-family="Times,serif" font-size="14.00" fill="#000000"> &#160;&#160;&#160;&#160;isPlayingRole(roleType: bytes32): bool</text>
<text text-anchor="start" x="90.8003" y="-1277.5" font-family="Times,serif" font-size="14.00" fill="#000000"> &#160;&#160;&#160;&#160;addRole(role: address)</text>
<text text-anchor="start" x="90.8003" y="-1260.7" font-family="Times,serif" font-size="14.00" fill="#000000"> &#160;&#160;&#160;&#160;removeRole(roleType: bytes32)</text>
<text text-anchor="start" x="90.8003" y="-1243.9" font-family="Times,serif" font-size="14.00" fill="#000000"> &#160;&#160;&#160;&#160;getRole(roleType: bytes32): address</text>
<text text-anchor="start" x="90.8003" y="-1227.1" font-family="Times,serif" font-size="14.00" fill="#000000"> &#160;&#160;&#160;&#160;getActiveTeam(): address</text>
<text text-anchor="start" x="90.8003" y="-1210.3" font-family="Times,serif" font-size="14.00" fill="#000000"> &#160;&#160;&#160;&#160;activateTeam(team: address)</text>
<text text-anchor="start" x="90.8003" y="-1193.5" font-family="Times,serif" font-size="14.00" fill="#000000"> &#160;&#160;&#160;&#160;deactivateTeam()</text>
</g>
<!-- 2&#45;&gt;1 -->
<g id="edge4" class="edge">
<title>2&#45;&gt;1</title>
<path fill="none" stroke="#000000" stroke-dasharray="5,2" d="M122.8701,-734.6347C120.4712,-852.256 123.9782,-1011.2441 150.3659,-1148.8 150.8115,-1151.1231 151.2848,-1153.4569 151.7836,-1155.7989"/>
<polygon fill="none" stroke="#000000" points="141.6166,-1158.4234 159.1061,-1184.9633 161.9844,-1153.3095 141.6166,-1158.4234"/>
</g>
<!-- 2&#45;&gt;2 -->
<g id="edge6" class="edge">
<title>2&#45;&gt;2</title>
<path fill="none" stroke="#000000" stroke-dasharray="5,2" d="M262.9473,-523.7725C273.9111,-532.1915 280.7318,-545.234 280.7318,-562.9 280.7318,-576.1495 276.8951,-586.7983 270.3515,-594.8463"/>
<polygon fill="#000000" stroke="#000000" points="267.6889,-592.5529 262.9473,-602.0275 272.5625,-597.5777 267.6889,-592.5529"/>
</g>
<!-- 4 -->
<g id="node5" class="node">
<title>4</title>
<polygon fill="#f2f2f2" stroke="#000000" points="159.0503,-771.5 159.0503,-1148.3 417.6815,-1148.3 417.6815,-771.5 159.0503,-771.5"/>
<text text-anchor="middle" x="288.3659" y="-1131.7" font-family="Times,serif" font-size="14.00" fill="#000000">&lt;&lt;Abstract&gt;&gt;</text>
<text text-anchor="middle" x="288.3659" y="-1114.9" font-family="Times,serif" font-size="14.00" fill="#000000">CustomerRole</text>
<polyline fill="none" stroke="#000000" points="159.0503,-1106.7 417.6815,-1106.7 "/>
<text text-anchor="start" x="167.0503" y="-1090.1" font-family="Times,serif" font-size="14.00" fill="#000000">Internal:</text>
<text text-anchor="start" x="167.0503" y="-1073.3" font-family="Times,serif" font-size="14.00" fill="#000000"> &#160;&#160;core: Customer</text>
<text text-anchor="start" x="167.0503" y="-1056.5" font-family="Times,serif" font-size="14.00" fill="#000000"> &#160;&#160;assignedTeam: Team</text>
<polyline fill="none" stroke="#000000" points="159.0503,-1048.3 417.6815,-1048.3 "/>
<text text-anchor="start" x="167.0503" y="-1031.7" font-family="Times,serif" font-size="14.00" fill="#000000">External:</text>
<text text-anchor="start" x="167.0503" y="-1014.9" font-family="Times,serif" font-size="14.00" fill="#000000"> &#160;&#160;&#160;&lt;&lt;abstract&gt;&gt; roleType(): bytes32</text>
<text text-anchor="start" x="167.0503" y="-998.1" font-family="Times,serif" font-size="14.00" fill="#000000"> &#160;&#160;&#160;setCore(_core: Customer)</text>
<text text-anchor="start" x="167.0503" y="-981.3" font-family="Times,serif" font-size="14.00" fill="#000000"> &#160;&#160;&#160;setTeam(_team: Team)</text>
<text text-anchor="start" x="167.0503" y="-964.5" font-family="Times,serif" font-size="14.00" fill="#000000"> &#160;&#160;&#160;currentBalance(): uint</text>
<text text-anchor="start" x="167.0503" y="-947.7" font-family="Times,serif" font-size="14.00" fill="#000000"> &#160;&#160;&#160;deposit(amount: uint)</text>
<text text-anchor="start" x="167.0503" y="-930.9" font-family="Times,serif" font-size="14.00" fill="#000000"> &#160;&#160;&#160;withdraw(amount: uint)</text>
<text text-anchor="start" x="167.0503" y="-914.1" font-family="Times,serif" font-size="14.00" fill="#000000"> &#160;&#160;&#160;isPlayingRole(_roleType: bytes32): bool</text>
<text text-anchor="start" x="167.0503" y="-897.3" font-family="Times,serif" font-size="14.00" fill="#000000"> &#160;&#160;&#160;addRole(role: address)</text>
<text text-anchor="start" x="167.0503" y="-880.5" font-family="Times,serif" font-size="14.00" fill="#000000"> &#160;&#160;&#160;removeRole(_roleType: bytes32)</text>
<text text-anchor="start" x="167.0503" y="-863.7" font-family="Times,serif" font-size="14.00" fill="#000000"> &#160;&#160;&#160;getRole(_roleType: bytes32): address</text>
<text text-anchor="start" x="167.0503" y="-846.9" font-family="Times,serif" font-size="14.00" fill="#000000"> &#160;&#160;&#160;getActiveTeam(): address</text>
<text text-anchor="start" x="167.0503" y="-830.1" font-family="Times,serif" font-size="14.00" fill="#000000"> &#160;&#160;&#160;activateTeam(team: address)</text>
<text text-anchor="start" x="167.0503" y="-813.3" font-family="Times,serif" font-size="14.00" fill="#000000"> &#160;&#160;&#160;deactivateTeam()</text>
<text text-anchor="start" x="167.0503" y="-796.5" font-family="Times,serif" font-size="14.00" fill="#000000">Public:</text>
<text text-anchor="start" x="167.0503" y="-779.7" font-family="Times,serif" font-size="14.00" fill="#000000"> &#160;&#160;&#160;&lt;&lt;modifier&gt;&gt; onlyWhenActive()</text>
</g>
<!-- 2&#45;&gt;4 -->
<g id="edge5" class="edge">
<title>2&#45;&gt;4</title>
<path fill="none" stroke="#000000" stroke-dasharray="5,2" d="M199.3153,-734.721C202.8827,-743.7418 206.4797,-752.8375 210.0762,-761.9317"/>
<polygon fill="#000000" stroke="#000000" points="206.8903,-763.393 213.8226,-771.4051 213.3997,-760.8187 206.8903,-763.393"/>
</g>
<!-- 3 -->
<g id="node4" class="node">
<title>3</title>
<polygon fill="#f2f2f2" stroke="#000000" points="436.0433,-905.9 436.0433,-1013.9 582.6885,-1013.9 582.6885,-905.9 436.0433,-905.9"/>
<text text-anchor="middle" x="509.3659" y="-997.3" font-family="Times,serif" font-size="14.00" fill="#000000">&lt;&lt;Library&gt;&gt;</text>
<text text-anchor="middle" x="509.3659" y="-980.5" font-family="Times,serif" font-size="14.00" fill="#000000">KnownRoleTypes</text>
<polyline fill="none" stroke="#000000" points="436.0433,-972.3 582.6885,-972.3 "/>
<text text-anchor="start" x="444.0433" y="-955.7" font-family="Times,serif" font-size="14.00" fill="#000000">Public:</text>
<text text-anchor="start" x="444.0433" y="-938.9" font-family="Times,serif" font-size="14.00" fill="#000000"> &#160;&#160;INVESTOR: bytes32</text>
<polyline fill="none" stroke="#000000" points="436.0433,-930.7 582.6885,-930.7 "/>
<text text-anchor="middle" x="509.3659" y="-914.1" font-family="Times,serif" font-size="14.00" fill="#000000"> </text>
</g>
<!-- 4&#45;&gt;1 -->
<g id="edge7" class="edge">
<title>4&#45;&gt;1</title>
<path fill="none" stroke="#000000" stroke-dasharray="5,2" d="M246.9678,-1148.3143C246.4123,-1150.8424 245.8575,-1153.3676 245.3038,-1155.8878"/>
<polygon fill="none" stroke="#000000" points="235.0479,-1153.6373 238.8652,-1185.1916 255.5586,-1158.1439 235.0479,-1153.6373"/>
</g>
<!-- 8 -->
<g id="node9" class="node">
<title>8</title>
<polygon fill="#f2f2f2" stroke="#000000" points="469.662,-1218.9 469.662,-1410.9 751.0698,-1410.9 751.0698,-1218.9 469.662,-1218.9"/>
<text text-anchor="middle" x="610.3659" y="-1394.3" font-family="Times,serif" font-size="14.00" fill="#000000">Team</text>
<polyline fill="none" stroke="#000000" points="469.662,-1386.1 751.0698,-1386.1 "/>
<text text-anchor="start" x="477.662" y="-1369.5" font-family="Times,serif" font-size="14.00" fill="#000000">Internal:</text>
<text text-anchor="start" x="477.662" y="-1352.7" font-family="Times,serif" font-size="14.00" fill="#000000"> &#160;&#160;allowedRoleTypes: mapping(bytes32=&gt;bool)</text>
<text text-anchor="start" x="477.662" y="-1335.9" font-family="Times,serif" font-size="14.00" fill="#000000"> &#160;&#160;roles: mapping(bytes32=&gt;address)</text>
<polyline fill="none" stroke="#000000" points="469.662,-1327.7 751.0698,-1327.7 "/>
<text text-anchor="start" x="477.662" y="-1311.1" font-family="Times,serif" font-size="14.00" fill="#000000">External:</text>
<text text-anchor="start" x="477.662" y="-1294.3" font-family="Times,serif" font-size="14.00" fill="#000000"> &#160;&#160;&#160;isRoleAllowed(roleType: bytes32): bool</text>
<text text-anchor="start" x="477.662" y="-1277.5" font-family="Times,serif" font-size="14.00" fill="#000000"> &#160;&#160;&#160;hasRole(roleType: bytes32): bool</text>
<text text-anchor="start" x="477.662" y="-1260.7" font-family="Times,serif" font-size="14.00" fill="#000000"> &#160;&#160;&#160;getRole(roleType: bytes32): address</text>
<text text-anchor="start" x="477.662" y="-1243.9" font-family="Times,serif" font-size="14.00" fill="#000000"> &#160;&#160;&#160;setRole(roleAddress: address)</text>
<text text-anchor="start" x="477.662" y="-1227.1" font-family="Times,serif" font-size="14.00" fill="#000000"> &#160;&#160;&#160;unsetRole(roleType: bytes32)</text>
</g>
<!-- 4&#45;&gt;8 -->
<g id="edge8" class="edge">
<title>4&#45;&gt;8</title>
<path fill="none" stroke="#000000" d="M417.9568,-1148.3462C418.0931,-1148.4976 418.2295,-1148.6488 418.3659,-1148.8 437.6045,-1170.1223 459.293,-1191.6495 480.9959,-1211.8168"/>
<polygon fill="#000000" stroke="#000000" points="478.6291,-1214.3953 488.3531,-1218.6018 483.3747,-1209.2494 478.6291,-1214.3953"/>
</g>
<!-- 5&#45;&gt;3 -->
<g id="edge10" class="edge">
<title>5&#45;&gt;3</title>
<path fill="none" stroke="#000000" stroke-dasharray="5,2" d="M400.1436,-633.8756C425.0844,-708.323 463.9289,-824.2722 487.947,-895.9655"/>
<polygon fill="#000000" stroke="#000000" points="484.7393,-897.4089 491.2347,-905.7791 491.3768,-895.1852 484.7393,-897.4089"/>
</g>
<!-- 5&#45;&gt;4 -->
<g id="edge9" class="edge">
<title>5&#45;&gt;4</title>
<path fill="none" stroke="#000000" d="M360.6333,-633.8756C353.8012,-664.6978 345.3922,-702.6336 336.7554,-741.5973"/>
<polygon fill="none" stroke="#000000" points="326.4497,-739.5714 330.2085,-771.1328 346.952,-744.1161 326.4497,-739.5714"/>
</g>
<!-- 6 -->
<g id="node7" class="node">
<title>6</title>
<polygon fill="#f2f2f2" stroke="#000000" points="477.4679,-17.3 477.4679,-175.7 681.2639,-175.7 681.2639,-17.3 477.4679,-17.3"/>
<text text-anchor="middle" x="579.3659" y="-159.1" font-family="Times,serif" font-size="14.00" fill="#000000">Migrations</text>
<polyline fill="none" stroke="#000000" points="477.4679,-150.9 681.2639,-150.9 "/>
<text text-anchor="start" x="485.4679" y="-134.3" font-family="Times,serif" font-size="14.00" fill="#000000">Public:</text>
<text text-anchor="start" x="485.4679" y="-117.5" font-family="Times,serif" font-size="14.00" fill="#000000"> &#160;&#160;owner: address</text>
<text text-anchor="start" x="485.4679" y="-100.7" font-family="Times,serif" font-size="14.00" fill="#000000"> &#160;&#160;last_completed_migration: uint</text>
<polyline fill="none" stroke="#000000" points="477.4679,-92.5 681.2639,-92.5 "/>
<text text-anchor="start" x="485.4679" y="-75.9" font-family="Times,serif" font-size="14.00" fill="#000000">Public:</text>
<text text-anchor="start" x="485.4679" y="-59.1" font-family="Times,serif" font-size="14.00" fill="#000000"> &#160;&#160;&#160;&lt;&lt;modifier&gt;&gt; restricted()</text>
<text text-anchor="start" x="485.4679" y="-42.3" font-family="Times,serif" font-size="14.00" fill="#000000"> &#160;&#160;&#160;constructor()</text>
<text text-anchor="start" x="485.4679" y="-25.5" font-family="Times,serif" font-size="14.00" fill="#000000"> &#160;&#160;&#160;setCompleted(completed: uint)</text>
</g>
<!-- 7&#45;&gt;5 -->
<g id="edge12" class="edge">
<title>7&#45;&gt;5</title>
<path fill="none" stroke="#000000" stroke-dasharray="5,2" d="M556.3878,-354.4131C523.097,-392.9678 480.1035,-442.7595 444.4812,-484.0143"/>
<polygon fill="#000000" stroke="#000000" points="441.8059,-481.7572 437.9195,-491.6135 447.1042,-486.3321 441.8059,-481.7572"/>
</g>
<!-- 7&#45;&gt;8 -->
<g id="edge11" class="edge">
<title>7&#45;&gt;8</title>
<path fill="none" stroke="#000000" d="M610.3659,-354.3533C610.3659,-518.9798 610.3659,-967.2656 610.3659,-1188.2728"/>
<polygon fill="none" stroke="#000000" points="599.866,-1188.5336 610.3659,-1218.5337 620.866,-1188.5337 599.866,-1188.5336"/>
</g>
<!-- 8&#45;&gt;4 -->
<g id="edge13" class="edge">
<title>8&#45;&gt;4</title>
<path fill="none" stroke="#000000" stroke-dasharray="5,2" d="M505.9094,-1218.6018C482.2278,-1196.5191 457.7793,-1172.5326 436.3659,-1148.8 432.4343,-1144.4426 428.5047,-1139.977 424.5879,-1135.4292"/>
<polygon fill="#000000" stroke="#000000" points="427.1575,-1133.0482 418.01,-1127.7026 421.8274,-1137.5859 427.1575,-1133.0482"/>
</g>
<!-- 8&#45;&gt;8 -->
<g id="edge14" class="edge">
<title>8&#45;&gt;8</title>
<path fill="none" stroke="#000000" stroke-dasharray="5,2" d="M751.2048,-1264.6042C762.2489,-1275.664 769.0698,-1292.4293 769.0698,-1314.9 769.0698,-1332.6308 764.823,-1346.8093 757.6055,-1357.4354"/>
<polygon fill="#000000" stroke="#000000" points="754.8677,-1355.2542 751.2048,-1365.1958 760.2679,-1359.7082 754.8677,-1355.2542"/>
</g>
</g>
</svg>
