<?xml version="1.0" encoding="UTF-8" standalone="no"?>
<!DOCTYPE svg PUBLIC "-//W3C//DTD SVG 1.1//EN"
 "http://www.w3.org/Graphics/SVG/1.1/DTD/svg11.dtd">
<!-- Generated by graphviz version 2.40.1 (20161225.0304)
 -->
<!-- Title: UmlClassDiagram Pages: 1 -->
<svg width="1097pt" height="1447pt"
 viewBox="0.00 0.00 1096.50 1446.80" xmlns="http://www.w3.org/2000/svg" xmlns:xlink="http://www.w3.org/1999/xlink">
<g id="graph0" class="graph" transform="scale(1 1) rotate(0) translate(4 1442.8)">
<title>UmlClassDiagram</title>
<polygon fill="#ffffff" stroke="transparent" points="-4,4 -4,-1442.8 1092.5018,-1442.8 1092.5018,4 -4,4"/>
<!-- 0 -->
<g id="node1" class="node">
<title>0</title>
<polygon fill="#f2f2f2" stroke="#000000" points="548.8486,-1084.5 548.8486,-1293.3 792.2758,-1293.3 792.2758,-1084.5 548.8486,-1084.5"/>
<text text-anchor="middle" x="670.5622" y="-1276.7" font-family="Times,serif" font-size="14.00" fill="#000000">&lt;&lt;Interface&gt;&gt;</text>
<text text-anchor="middle" x="670.5622" y="-1259.9" font-family="Times,serif" font-size="14.00" fill="#000000">Component</text>
<polyline fill="none" stroke="#000000" points="548.8486,-1251.7 792.2758,-1251.7 "/>
<text text-anchor="middle" x="670.5622" y="-1235.1" font-family="Times,serif" font-size="14.00" fill="#000000"> </text>
<polyline fill="none" stroke="#000000" points="548.8486,-1226.9 792.2758,-1226.9 "/>
<text text-anchor="start" x="556.8486" y="-1210.3" font-family="Times,serif" font-size="14.00" fill="#000000">External:</text>
<text text-anchor="start" x="556.8486" y="-1193.5" font-family="Times,serif" font-size="14.00" fill="#000000"> &#160;&#160;&#160;&#160;addRole(spec: bytes32, role: address)</text>
<text text-anchor="start" x="556.8486" y="-1176.7" font-family="Times,serif" font-size="14.00" fill="#000000"> &#160;&#160;&#160;&#160;removeRole(spec: bytes32)</text>
<text text-anchor="start" x="556.8486" y="-1159.9" font-family="Times,serif" font-size="14.00" fill="#000000"> &#160;&#160;&#160;&#160;isPlayingRole(spec: bytes32): bool</text>
<text text-anchor="start" x="556.8486" y="-1143.1" font-family="Times,serif" font-size="14.00" fill="#000000"> &#160;&#160;&#160;&#160;getRole(spec: bytes32): address</text>
<text text-anchor="start" x="556.8486" y="-1126.3" font-family="Times,serif" font-size="14.00" fill="#000000"> &#160;&#160;&#160;&#160;activateTeam(team: address)</text>
<text text-anchor="start" x="556.8486" y="-1109.5" font-family="Times,serif" font-size="14.00" fill="#000000"> &#160;&#160;&#160;&#160;deactivateTeam()</text>
<text text-anchor="start" x="556.8486" y="-1092.7" font-family="Times,serif" font-size="14.00" fill="#000000"> &#160;&#160;&#160;&#160;getActiveTeam(): address</text>
</g>
<!-- 6 -->
<g id="node4" class="node">
<title>6</title>
<polygon fill="#f2f2f2" stroke="#000000" points="725.5912,-1330.3 725.5912,-1438.3 1005.5332,-1438.3 1005.5332,-1330.3 725.5912,-1330.3"/>
<text text-anchor="middle" x="865.5622" y="-1421.7" font-family="Times,serif" font-size="14.00" fill="#000000">&lt;&lt;Interface&gt;&gt;</text>
<text text-anchor="middle" x="865.5622" y="-1404.9" font-family="Times,serif" font-size="14.00" fill="#000000">ERC165</text>
<polyline fill="none" stroke="#000000" points="725.5912,-1396.7 1005.5332,-1396.7 "/>
<text text-anchor="middle" x="865.5622" y="-1380.1" font-family="Times,serif" font-size="14.00" fill="#000000"> </text>
<polyline fill="none" stroke="#000000" points="725.5912,-1371.9 1005.5332,-1371.9 "/>
<text text-anchor="start" x="733.5912" y="-1355.3" font-family="Times,serif" font-size="14.00" fill="#000000">External:</text>
<text text-anchor="start" x="733.5912" y="-1338.5" font-family="Times,serif" font-size="14.00" fill="#000000"> &#160;&#160;&#160;&#160;supportsInterface(interfaceID: bytes4): bool</text>
</g>
<!-- 0&#45;&gt;6 -->
<g id="edge1" class="edge">
<title>0&#45;&gt;6</title>
<path fill="none" stroke="#000000" stroke-dasharray="5,2" d="M774.9126,-1293.4645C780.0628,-1298.6252 785.1873,-1303.7603 790.2284,-1308.8117"/>
<polygon fill="none" stroke="#000000" points="782.9922,-1316.4252 811.616,-1330.2431 797.8567,-1301.5911 782.9922,-1316.4252"/>
</g>
<!-- 1 -->
<g id="node2" class="node">
<title>1</title>
<polygon fill="#f2f2f2" stroke="#000000" points="505.4409,-771.5 505.4409,-1047.5 835.6835,-1047.5 835.6835,-771.5 505.4409,-771.5"/>
<text text-anchor="middle" x="670.5622" y="-1030.9" font-family="Times,serif" font-size="14.00" fill="#000000">ComponentCore</text>
<polyline fill="none" stroke="#000000" points="505.4409,-1022.7 835.6835,-1022.7 "/>
<text text-anchor="start" x="513.4409" y="-1006.1" font-family="Times,serif" font-size="14.00" fill="#000000">Internal:</text>
<text text-anchor="start" x="513.4409" y="-989.3" font-family="Times,serif" font-size="14.00" fill="#000000"> &#160;&#160;playedRoles: mapping(bytes32=&gt;ComponentRole)</text>
<text text-anchor="start" x="513.4409" y="-972.5" font-family="Times,serif" font-size="14.00" fill="#000000"> &#160;&#160;activeTeam: Team</text>
<polyline fill="none" stroke="#000000" points="505.4409,-964.3 835.6835,-964.3 "/>
<text text-anchor="start" x="513.4409" y="-947.7" font-family="Times,serif" font-size="14.00" fill="#000000">External:</text>
<text text-anchor="start" x="513.4409" y="-930.9" font-family="Times,serif" font-size="14.00" fill="#000000"> &#160;&#160;&#160;supportsInterface(interfaceID: bytes4): bool</text>
<text text-anchor="start" x="513.4409" y="-914.1" font-family="Times,serif" font-size="14.00" fill="#000000"> &#160;&#160;&#160;addRole(spec: bytes32, role: address)</text>
<text text-anchor="start" x="513.4409" y="-897.3" font-family="Times,serif" font-size="14.00" fill="#000000"> &#160;&#160;&#160;removeRole(spec: bytes32)</text>
<text text-anchor="start" x="513.4409" y="-880.5" font-family="Times,serif" font-size="14.00" fill="#000000"> &#160;&#160;&#160;isPlayingRole(spec: bytes32): bool</text>
<text text-anchor="start" x="513.4409" y="-863.7" font-family="Times,serif" font-size="14.00" fill="#000000"> &#160;&#160;&#160;getRole(spec: bytes32): address</text>
<text text-anchor="start" x="513.4409" y="-846.9" font-family="Times,serif" font-size="14.00" fill="#000000"> &#160;&#160;&#160;activateTeam(team: address)</text>
<text text-anchor="start" x="513.4409" y="-830.1" font-family="Times,serif" font-size="14.00" fill="#000000"> &#160;&#160;&#160;deactivateTeam()</text>
<text text-anchor="start" x="513.4409" y="-813.3" font-family="Times,serif" font-size="14.00" fill="#000000"> &#160;&#160;&#160;getActiveTeam(): address</text>
<text text-anchor="start" x="513.4409" y="-796.5" font-family="Times,serif" font-size="14.00" fill="#000000">Public:</text>
<text text-anchor="start" x="513.4409" y="-779.7" font-family="Times,serif" font-size="14.00" fill="#000000"> &#160;&#160;&#160;&lt;&lt;event&gt;&gt; Logging(description: string, value: string)</text>
</g>
<!-- 1&#45;&gt;0 -->
<g id="edge2" class="edge">
<title>1&#45;&gt;0</title>
<path fill="none" stroke="#000000" stroke-dasharray="5,2" d="M670.5622,-1047.5629C670.5622,-1049.7863 670.5622,-1052.0102 670.5622,-1054.2324"/>
<polygon fill="none" stroke="#000000" points="660.0623,-1054.3464 670.5622,-1084.3464 681.0623,-1054.3465 660.0623,-1054.3464"/>
</g>
<!-- 2 -->
<g id="node3" class="node">
<title>2</title>
<polygon fill="#f2f2f2" stroke="#000000" points="339.3412,-408.1 339.3412,-734.5 615.7832,-734.5 615.7832,-408.1 339.3412,-408.1"/>
<text text-anchor="middle" x="477.5622" y="-717.9" font-family="Times,serif" font-size="14.00" fill="#000000">&lt;&lt;Abstract&gt;&gt;</text>
<text text-anchor="middle" x="477.5622" y="-701.1" font-family="Times,serif" font-size="14.00" fill="#000000">ComponentRole</text>
<polyline fill="none" stroke="#000000" points="339.3412,-692.9 615.7832,-692.9 "/>
<text text-anchor="start" x="347.3412" y="-676.3" font-family="Times,serif" font-size="14.00" fill="#000000">Internal:</text>
<text text-anchor="start" x="347.3412" y="-659.5" font-family="Times,serif" font-size="14.00" fill="#000000"> &#160;&#160;core: ComponentCore</text>
<text text-anchor="start" x="347.3412" y="-642.7" font-family="Times,serif" font-size="14.00" fill="#000000"> &#160;&#160;assignedTeam: Team</text>
<polyline fill="none" stroke="#000000" points="339.3412,-634.5 615.7832,-634.5 "/>
<text text-anchor="start" x="347.3412" y="-617.9" font-family="Times,serif" font-size="14.00" fill="#000000">External:</text>
<text text-anchor="start" x="347.3412" y="-601.1" font-family="Times,serif" font-size="14.00" fill="#000000"> &#160;&#160;&#160;supportsInterface(interfaceID: bytes4): bool</text>
<text text-anchor="start" x="347.3412" y="-584.3" font-family="Times,serif" font-size="14.00" fill="#000000"> &#160;&#160;&#160;setCore(coreAddress: address)</text>
<text text-anchor="start" x="347.3412" y="-567.5" font-family="Times,serif" font-size="14.00" fill="#000000"> &#160;&#160;&#160;setTeam(teamAddress: address)</text>
<text text-anchor="start" x="347.3412" y="-550.7" font-family="Times,serif" font-size="14.00" fill="#000000"> &#160;&#160;&#160;addRole(spec: bytes32, role: address)</text>
<text text-anchor="start" x="347.3412" y="-533.9" font-family="Times,serif" font-size="14.00" fill="#000000"> &#160;&#160;&#160;removeRole(spec: bytes32)</text>
<text text-anchor="start" x="347.3412" y="-517.1" font-family="Times,serif" font-size="14.00" fill="#000000"> &#160;&#160;&#160;isPlayingRole(spec: bytes32): bool</text>
<text text-anchor="start" x="347.3412" y="-500.3" font-family="Times,serif" font-size="14.00" fill="#000000"> &#160;&#160;&#160;getRole(spec: bytes32): address</text>
<text text-anchor="start" x="347.3412" y="-483.5" font-family="Times,serif" font-size="14.00" fill="#000000"> &#160;&#160;&#160;activateTeam(team: address)</text>
<text text-anchor="start" x="347.3412" y="-466.7" font-family="Times,serif" font-size="14.00" fill="#000000"> &#160;&#160;&#160;deactivateTeam()</text>
<text text-anchor="start" x="347.3412" y="-449.9" font-family="Times,serif" font-size="14.00" fill="#000000"> &#160;&#160;&#160;getActiveTeam(): address</text>
<text text-anchor="start" x="347.3412" y="-433.1" font-family="Times,serif" font-size="14.00" fill="#000000">Public:</text>
<text text-anchor="start" x="347.3412" y="-416.3" font-family="Times,serif" font-size="14.00" fill="#000000"> &#160;&#160;&#160;&lt;&lt;modifier&gt;&gt; onlyWhenActive()</text>
</g>
<!-- 1&#45;&gt;2 -->
<g id="edge4" class="edge">
<title>1&#45;&gt;2</title>
<path fill="none" stroke="#000000" stroke-dasharray="5,2" d="M598.3064,-771.2322C593.1923,-762.1657 587.9817,-752.9768 582.7368,-743.7746"/>
<polygon fill="#000000" stroke="#000000" points="585.6972,-741.9005 577.6997,-734.9513 579.618,-745.3711 585.6972,-741.9005"/>
</g>
<!-- 7 -->
<g id="node5" class="node">
<title>7</title>
<polygon fill="#f2f2f2" stroke="#000000" points="0,-1118.1 0,-1259.7 531.1244,-1259.7 531.1244,-1118.1 0,-1118.1"/>
<text text-anchor="middle" x="265.5622" y="-1243.1" font-family="Times,serif" font-size="14.00" fill="#000000">ERC165Query</text>
<polyline fill="none" stroke="#000000" points="0,-1234.9 531.1244,-1234.9 "/>
<text text-anchor="start" x="8" y="-1218.3" font-family="Times,serif" font-size="14.00" fill="#000000">Public:</text>
<text text-anchor="start" x="8" y="-1201.5" font-family="Times,serif" font-size="14.00" fill="#000000"> &#160;&#160;InvalidID: bytes4</text>
<text text-anchor="start" x="8" y="-1184.7" font-family="Times,serif" font-size="14.00" fill="#000000"> &#160;&#160;ERC165ID: bytes4</text>
<polyline fill="none" stroke="#000000" points="0,-1176.5 531.1244,-1176.5 "/>
<text text-anchor="start" x="8" y="-1159.9" font-family="Times,serif" font-size="14.00" fill="#000000">Internal:</text>
<text text-anchor="start" x="8" y="-1143.1" font-family="Times,serif" font-size="14.00" fill="#000000"> &#160;&#160;&#160;doesContractImplementInterface(_contract: address, _interfaceId: bytes4): bool</text>
<text text-anchor="start" x="8" y="-1126.3" font-family="Times,serif" font-size="14.00" fill="#000000"> &#160;&#160;&#160;noThrowCall(_contract: address, _interfaceId: bytes4): (success: uint256, result: uint256)</text>
</g>
<!-- 1&#45;&gt;7 -->
<g id="edge3" class="edge">
<title>1&#45;&gt;7</title>
<path fill="none" stroke="#000000" d="M505.2491,-1023.5457C467.8455,-1049.3495 428.689,-1076.3626 393.1232,-1100.8987"/>
<polygon fill="none" stroke="#000000" points="386.9707,-1092.3869 368.2393,-1118.0655 398.8957,-1109.6726 386.9707,-1092.3869"/>
</g>
<!-- 3 -->
<g id="node6" class="node">
<title>3</title>
<polygon fill="#f2f2f2" stroke="#000000" points="810.1365,-1118.1 810.1365,-1259.7 1032.9879,-1259.7 1032.9879,-1118.1 810.1365,-1118.1"/>
<text text-anchor="middle" x="921.5622" y="-1243.1" font-family="Times,serif" font-size="14.00" fill="#000000">&lt;&lt;Library&gt;&gt;</text>
<text text-anchor="middle" x="921.5622" y="-1226.3" font-family="Times,serif" font-size="14.00" fill="#000000">InterfaceIds</text>
<polyline fill="none" stroke="#000000" points="810.1365,-1218.1 1032.9879,-1218.1 "/>
<text text-anchor="start" x="818.1365" y="-1201.5" font-family="Times,serif" font-size="14.00" fill="#000000">Public:</text>
<text text-anchor="start" x="818.1365" y="-1184.7" font-family="Times,serif" font-size="14.00" fill="#000000"> &#160;&#160;COMPONENT_ID: bytes4</text>
<text text-anchor="start" x="818.1365" y="-1167.9" font-family="Times,serif" font-size="14.00" fill="#000000"> &#160;&#160;COMPONENT_ROLE_ID: bytes4</text>
<text text-anchor="start" x="818.1365" y="-1151.1" font-family="Times,serif" font-size="14.00" fill="#000000"> &#160;&#160;TEAM_ID: bytes4</text>
<polyline fill="none" stroke="#000000" points="810.1365,-1142.9 1032.9879,-1142.9 "/>
<text text-anchor="middle" x="921.5622" y="-1126.3" font-family="Times,serif" font-size="14.00" fill="#000000"> </text>
</g>
<!-- 1&#45;&gt;3 -->
<g id="edge5" class="edge">
<title>1&#45;&gt;3</title>
<path fill="none" stroke="#000000" stroke-dasharray="5,2" d="M794.5915,-1047.5629C813.8907,-1069.0458 833.2363,-1090.5802 850.8023,-1110.1338"/>
<polygon fill="#000000" stroke="#000000" points="848.4127,-1112.7112 857.6993,-1117.8112 853.6201,-1108.0331 848.4127,-1112.7112"/>
</g>
<!-- 2&#45;&gt;0 -->
<g id="edge6" class="edge">
<title>2&#45;&gt;0</title>
<path fill="none" stroke="#000000" stroke-dasharray="5,2" d="M451.7073,-734.6759C444.1514,-830.8002 448.3734,-951.9429 496.5622,-1048 496.7403,-1048.355 508.1835,-1057.7245 525.1245,-1071.4794"/>
<polygon fill="none" stroke="#000000" points="518.6867,-1079.7773 548.6051,-1090.5076 531.9083,-1063.462 518.6867,-1079.7773"/>
</g>
<!-- 2&#45;&gt;1 -->
<g id="edge8" class="edge">
<title>2&#45;&gt;1</title>
<path fill="none" stroke="#000000" d="M564.2059,-734.9513C569.4453,-744.1509 574.7237,-753.3721 579.9787,-762.5057"/>
<polygon fill="#000000" stroke="#000000" points="576.9822,-764.3157 585.0079,-771.2322 583.0471,-760.8204 576.9822,-764.3157"/>
</g>
<!-- 2&#45;&gt;7 -->
<g id="edge7" class="edge">
<title>2&#45;&gt;7</title>
<path fill="none" stroke="#000000" d="M421.4456,-734.7794C382.7305,-847.5644 332.515,-993.8526 299.687,-1089.4875"/>
<polygon fill="none" stroke="#000000" points="289.6916,-1086.2654 289.8827,-1118.0493 309.554,-1093.0835 289.6916,-1086.2654"/>
</g>
<!-- 2&#45;&gt;3 -->
<g id="edge10" class="edge">
<title>2&#45;&gt;3</title>
<path fill="none" stroke="#000000" stroke-dasharray="5,2" d="M616.0797,-613.1489C695.0744,-644.1587 789.1035,-694.5097 844.5622,-771 849.5179,-777.835 886.7758,-988.6796 907.5927,-1108.2037"/>
<polygon fill="#000000" stroke="#000000" points="904.1454,-1108.8092 909.3083,-1118.061 911.0417,-1107.6089 904.1454,-1108.8092"/>
</g>
<!-- 5 -->
<g id="node8" class="node">
<title>5</title>
<polygon fill="#f2f2f2" stroke="#000000" points="425.4008,-.5 425.4008,-226.1 775.7236,-226.1 775.7236,-.5 425.4008,-.5"/>
<text text-anchor="middle" x="600.5622" y="-209.5" font-family="Times,serif" font-size="14.00" fill="#000000">&lt;&lt;Abstract&gt;&gt;</text>
<text text-anchor="middle" x="600.5622" y="-192.7" font-family="Times,serif" font-size="14.00" fill="#000000">Team</text>
<polyline fill="none" stroke="#000000" points="425.4008,-184.5 775.7236,-184.5 "/>
<text text-anchor="start" x="433.4008" y="-167.9" font-family="Times,serif" font-size="14.00" fill="#000000">Internal:</text>
<text text-anchor="start" x="433.4008" y="-151.1" font-family="Times,serif" font-size="14.00" fill="#000000"> &#160;&#160;roles: mapping(bytes32=&gt;ComponentRole)</text>
<text text-anchor="start" x="433.4008" y="-134.3" font-family="Times,serif" font-size="14.00" fill="#000000"> &#160;&#160;roleCreators: mapping(bytes32=&gt;RoleCreator)</text>
<polyline fill="none" stroke="#000000" points="425.4008,-126.1 775.7236,-126.1 "/>
<text text-anchor="start" x="433.4008" y="-109.5" font-family="Times,serif" font-size="14.00" fill="#000000">External:</text>
<text text-anchor="start" x="433.4008" y="-92.7" font-family="Times,serif" font-size="14.00" fill="#000000"> &#160;&#160;&#160;supportsInterface(interfaceID: bytes4): bool</text>
<text text-anchor="start" x="433.4008" y="-75.9" font-family="Times,serif" font-size="14.00" fill="#000000"> &#160;&#160;&#160;addRole(spec: bytes32): address</text>
<text text-anchor="start" x="433.4008" y="-59.1" font-family="Times,serif" font-size="14.00" fill="#000000"> &#160;&#160;&#160;removeRole(spec: bytes32)</text>
<text text-anchor="start" x="433.4008" y="-42.3" font-family="Times,serif" font-size="14.00" fill="#000000"> &#160;&#160;&#160;hasRole(spec: bytes32): bool</text>
<text text-anchor="start" x="433.4008" y="-25.5" font-family="Times,serif" font-size="14.00" fill="#000000"> &#160;&#160;&#160;getRole(spec: bytes32): address</text>
<text text-anchor="start" x="433.4008" y="-8.7" font-family="Times,serif" font-size="14.00" fill="#000000"> &#160;&#160;&#160;addRoleCreator(spec: bytes32, roleCreator: RoleCreator)</text>
</g>
<!-- 2&#45;&gt;5 -->
<g id="edge9" class="edge">
<title>2&#45;&gt;5</title>
<path fill="none" stroke="#000000" d="M569.5638,-407.8908C574.0937,-395.7814 578.1618,-383.6055 581.5622,-371.6 593.8213,-328.3173 600.7783,-279.5563 604.1716,-236.1545"/>
<polygon fill="#000000" stroke="#000000" points="607.6671,-236.3421 604.9005,-226.1149 600.6854,-235.8352 607.6671,-236.3421"/>
</g>
<!-- 4 -->
<g id="node7" class="node">
<title>4</title>
<polygon fill="#f2f2f2" stroke="#000000" points="293.2357,-263.1 293.2357,-371.1 563.8887,-371.1 563.8887,-263.1 293.2357,-263.1"/>
<text text-anchor="middle" x="428.5622" y="-354.5" font-family="Times,serif" font-size="14.00" fill="#000000">&lt;&lt;Interface&gt;&gt;</text>
<text text-anchor="middle" x="428.5622" y="-337.7" font-family="Times,serif" font-size="14.00" fill="#000000">RoleCreator</text>
<polyline fill="none" stroke="#000000" points="293.2357,-329.5 563.8887,-329.5 "/>
<text text-anchor="middle" x="428.5622" y="-312.9" font-family="Times,serif" font-size="14.00" fill="#000000"> </text>
<polyline fill="none" stroke="#000000" points="293.2357,-304.7 563.8887,-304.7 "/>
<text text-anchor="start" x="301.2357" y="-288.1" font-family="Times,serif" font-size="14.00" fill="#000000">External:</text>
<text text-anchor="start" x="301.2357" y="-271.3" font-family="Times,serif" font-size="14.00" fill="#000000"> &#160;&#160;&#160;&#160;createFor(spec: bytes32): ComponentRole</text>
</g>
<!-- 4&#45;&gt;2 -->
<g id="edge11" class="edge">
<title>4&#45;&gt;2</title>
<path fill="none" stroke="#000000" stroke-dasharray="5,2" d="M439.0138,-371.3205C440.6305,-379.7075 442.3705,-388.734 444.1856,-398.1505"/>
<polygon fill="#000000" stroke="#000000" points="440.7728,-398.9374 446.1024,-408.0941 447.6463,-397.6124 440.7728,-398.9374"/>
</g>
<!-- 5&#45;&gt;2 -->
<g id="edge14" class="edge">
<title>5&#45;&gt;2</title>
<path fill="none" stroke="#000000" stroke-dasharray="5,2" d="M588.2333,-226.1149C583.8299,-271.9267 576.7762,-324.9458 563.5622,-371.6 561.0651,-380.4166 558.2078,-389.325 555.0865,-398.2315"/>
<polygon fill="#000000" stroke="#000000" points="551.7031,-397.2964 551.6006,-407.8908 558.2874,-399.6727 551.7031,-397.2964"/>
</g>
<!-- 5&#45;&gt;6 -->
<g id="edge12" class="edge">
<title>5&#45;&gt;6</title>
<path fill="none" stroke="#000000" stroke-dasharray="5,2" d="M775.7807,-199.2266C905.7765,-276.6372 1060.5622,-403.9473 1060.5622,-571.3 1060.5622,-571.3 1060.5622,-571.3 1060.5622,-909.5 1060.5622,-1080.5086 1134.2215,-1150.0704 1041.5622,-1293.8 1037.596,-1299.9523 1033.0709,-1305.7074 1028.1076,-1311.0887"/>
<polygon fill="none" stroke="#000000" points="1020.9752,-1303.3802 1005.5434,-1331.1671 1034.9351,-1319.0685 1020.9752,-1303.3802"/>
</g>
<!-- 5&#45;&gt;7 -->
<g id="edge13" class="edge">
<title>5&#45;&gt;7</title>
<path fill="none" stroke="#000000" d="M425.3995,-156.5163C371.0603,-178.952 316.9806,-212.5709 284.5622,-262.6 117.8617,-519.8571 188.8313,-907.4438 235.9906,-1088.7398"/>
<polygon fill="none" stroke="#000000" points="225.8789,-1091.571 243.8143,-1117.8117 246.1574,-1086.1138 225.8789,-1091.571"/>
</g>
<!-- 5&#45;&gt;3 -->
<g id="edge16" class="edge">
<title>5&#45;&gt;3</title>
<path fill="none" stroke="#000000" stroke-dasharray="5,2" d="M662.2338,-226.1395C729.0393,-354.1521 832.8469,-571.142 883.5622,-771 912.6187,-885.5054 920.1115,-1022.6242 921.7004,-1107.7648"/>
<polygon fill="#000000" stroke="#000000" points="918.2028,-1107.9437 921.866,-1117.8851 925.2019,-1107.8292 918.2028,-1107.9437"/>
</g>
<!-- 5&#45;&gt;4 -->
<g id="edge15" class="edge">
<title>5&#45;&gt;4</title>
<path fill="none" stroke="#000000" stroke-dasharray="5,2" d="M505.2562,-226.2266C496.9834,-236.0289 488.8268,-245.6935 481.0975,-254.8518"/>
<polygon fill="#000000" stroke="#000000" points="478.1979,-252.8608 474.4229,-262.7604 483.5474,-257.3756 478.1979,-252.8608"/>
</g>
</g>
</svg>
