<?xml version="1.0" encoding="UTF-8" standalone="no"?>
<!DOCTYPE svg PUBLIC "-//W3C//DTD SVG 1.1//EN"
 "http://www.w3.org/Graphics/SVG/1.1/DTD/svg11.dtd">
<!-- Generated by graphviz version 2.40.1 (20161225.0304)
 -->
<!-- Title: UmlClassDiagram Pages: 1 -->
<svg width="278pt" height="329pt"
 viewBox="0.00 0.00 277.85 329.20" xmlns="http://www.w3.org/2000/svg" xmlns:xlink="http://www.w3.org/1999/xlink">
<g id="graph0" class="graph" transform="scale(1 1) rotate(0) translate(4 325.2)">
<title>UmlClassDiagram</title>
<polygon fill="#ffffff" stroke="transparent" points="-4,4 -4,-325.2 273.8452,-325.2 273.8452,4 -4,4"/>
<!-- 0 -->
<g id="node1" class="node">
<title>0</title>
<polygon fill="#f2f2f2" stroke="#000000" points="0,-128.7 0,-320.7 269.8452,-320.7 269.8452,-128.7 0,-128.7"/>
<text text-anchor="middle" x="134.9226" y="-304.1" font-family="Times,serif" font-size="14.00" fill="#000000">ExtendedRole</text>
<polyline fill="none" stroke="#000000" points="0,-295.9 269.8452,-295.9 "/>
<text text-anchor="start" x="8" y="-279.3" font-family="Times,serif" font-size="14.00" fill="#000000">Public:</text>
<text text-anchor="start" x="8" y="-262.5" font-family="Times,serif" font-size="14.00" fill="#000000"> &#160;&#160;sampleVariable: uint</text>
<polyline fill="none" stroke="#000000" points="0,-254.3 269.8452,-254.3 "/>
<text text-anchor="start" x="8" y="-237.7" font-family="Times,serif" font-size="14.00" fill="#000000">Internal:</text>
<text text-anchor="start" x="8" y="-220.9" font-family="Times,serif" font-size="14.00" fill="#000000"> &#160;&#160;&#160;_authorizeUpgrade(address)</text>
<text text-anchor="start" x="8" y="-204.1" font-family="Times,serif" font-size="14.00" fill="#000000">External:</text>
<text text-anchor="start" x="8" y="-187.3" font-family="Times,serif" font-size="14.00" fill="#000000"> &#160;&#160;&#160;changeStateVariable()</text>
<text text-anchor="start" x="8" y="-170.5" font-family="Times,serif" font-size="14.00" fill="#000000">Public:</text>
<text text-anchor="start" x="8" y="-153.7" font-family="Times,serif" font-size="14.00" fill="#000000"> &#160;&#160;&#160;initializeRoleOwner(roleAddress: address)</text>
<text text-anchor="start" x="8" y="-136.9" font-family="Times,serif" font-size="14.00" fill="#000000"> &#160;&#160;&#160;getMessage(): string</text>
</g>
<!-- 1 -->
<g id="node2" class="node">
<title>1</title>
<polygon fill="#f2f2f2" stroke="#000000" points="63.5656,-.5 63.5656,-91.7 206.2796,-91.7 206.2796,-.5 63.5656,-.5"/>
<text text-anchor="middle" x="134.9226" y="-75.1" font-family="Times,serif" font-size="14.00" fill="#000000">UpdatedRoleV2</text>
<polyline fill="none" stroke="#000000" points="63.5656,-66.9 206.2796,-66.9 "/>
<text text-anchor="middle" x="134.9226" y="-50.3" font-family="Times,serif" font-size="14.00" fill="#000000"> </text>
<polyline fill="none" stroke="#000000" points="63.5656,-42.1 206.2796,-42.1 "/>
<text text-anchor="start" x="71.5656" y="-25.5" font-family="Times,serif" font-size="14.00" fill="#000000">External:</text>
<text text-anchor="start" x="71.5656" y="-8.7" font-family="Times,serif" font-size="14.00" fill="#000000"> &#160;&#160;&#160;refillStateVariable()</text>
</g>
<!-- 1&#45;&gt;0 -->
<g id="edge1" class="edge">
<title>1&#45;&gt;0</title>
<path fill="none" stroke="#000000" d="M134.9226,-92.0939C134.9226,-94.1182 134.9226,-96.1817 134.9226,-98.2784"/>
<polygon fill="none" stroke="#000000" points="124.4227,-98.5038 134.9226,-128.5038 145.4227,-98.5038 124.4227,-98.5038"/>
</g>
</g>
</svg>
